HIERARCHY
ROOT Hips
{
  OFFSET 5.80788e-005 67.184 3.4734
  CHANNELS 6 Xposition Yposition Zposition Zrotation Xrotation Yrotation
  JOINT Chest
  {
    OFFSET 0 8.7983 -4.7612
    CHANNELS 3 Zrotation Xrotation Yrotation
    JOINT Chest2
    {
      OFFSET 0 8.0291 0.4195
      CHANNELS 3 Zrotation Xrotation Yrotation
      JOINT Chest3
      {
        OFFSET 0 9.9351 -2.2114
        CHANNELS 3 Zrotation Xrotation Yrotation
        JOINT Neck
        {
          OFFSET 0 22.3885 -0.4656
          CHANNELS 3 Zrotation Xrotation Yrotation
          JOINT Head
          {
            OFFSET -0.0001 12.643 3.4389
            CHANNELS 3 Zrotation Xrotation Yrotation
            End Site
            {
              OFFSET 0.0001 17.6655 0.5274
            }
          }
        }
        JOINT LeftCollar
        {
          OFFSET 2.2603 21.606 7.4023
          CHANNELS 3 Zrotation Xrotation Yrotation
          JOINT LeftShoulder
          {
            OFFSET 13.5163 -1.1332 -5.0146
            CHANNELS 3 Zrotation Xrotation Yrotation
            JOINT LeftElbow
            {
              OFFSET -0.0995 -28.05 -0.2431
              CHANNELS 3 Zrotation Xrotation Yrotation
              JOINT LeftWrist
              {
                OFFSET 0.0679 -23.3996 -0.1402
                CHANNELS 3 Zrotation Xrotation Yrotation
                JOINT LeftFinger1
                {
                  OFFSET 0.7932 -9.069 2.5189
                  CHANNELS 3 Zrotation Xrotation Yrotation
                  JOINT LeftFinger11
                  {
                    OFFSET -0.8272 -3.3923 0.5977
                    CHANNELS 3 Zrotation Xrotation Yrotation
                    JOINT LeftFinger12
                    {
                      OFFSET -0.5649 -2.3158 0.4082
                      CHANNELS 3 Zrotation Xrotation Yrotation
                      End Site
                      {
                        OFFSET -0.4919 -1.6479 0.2673
                      }
                    }
                  }
                }
                JOINT LeftFinger2
                {
                  OFFSET 0.9159 -9.2044 0.2193
                  CHANNELS 3 Zrotation Xrotation Yrotation
                  JOINT LeftFinger21
                  {
                    OFFSET 0.0117 -4.1944 -0.0248
                    CHANNELS 3 Zrotation Xrotation Yrotation
                    JOINT LeftFinger22
                    {
                      OFFSET 0.0071 -2.3249 -0.0142
                      CHANNELS 3 Zrotation Xrotation Yrotation
                      End Site
                      {
                        OFFSET -0.1475 -2.0882 0.0028
                      }
                    }
                  }
                }
                JOINT LeftFinger3
                {
                  OFFSET 0.6113 -8.7231 -2.0637
                  CHANNELS 3 Zrotation Xrotation Yrotation
                  JOINT LeftFinger31
                  {
                    OFFSET -0.1927 -3.8059 -0.2383
                    CHANNELS 3 Zrotation Xrotation Yrotation
                    JOINT LeftFinger32
                    {
                      OFFSET -0.1091 -2.1688 -0.1362
                      CHANNELS 3 Zrotation Xrotation Yrotation
                      End Site
                      {
                        OFFSET -0.2358 -1.9176 -0.0906
                      }
                    }
                  }
                }
                JOINT LeftFinger4
                {
                  OFFSET -0.6151 -8.0947 -3.5641
                  CHANNELS 3 Zrotation Xrotation Yrotation
                  JOINT LeftFinger41
                  {
                    OFFSET -0.4882 -2.341 -0.6462
                    CHANNELS 3 Zrotation Xrotation Yrotation
                    JOINT LeftFinger42
                    {
                      OFFSET -0.3575 -1.7167 -0.4742
                      CHANNELS 3 Zrotation Xrotation Yrotation
                      End Site
                      {
                        OFFSET -0.4187 -1.5237 -0.3496
                      }
                    }
                  }
                }
                JOINT LeftFinger0
                {
                  OFFSET -1.42 -1.8761 1.4223
                  CHANNELS 3 Zrotation Xrotation Yrotation
                  JOINT LeftFinger01
                  {
                    OFFSET -1.1471 -3.4929 2.6334
                    CHANNELS 3 Zrotation Xrotation Yrotation
                    JOINT LeftFinger02
                    {
                      OFFSET -0.823 -2.3 1.6571
                      CHANNELS 3 Zrotation Xrotation Yrotation
                      End Site
                      {
                        OFFSET -0.5822 -1.6914 1.1582
                      }
                    }
                  }
                }
              }
            }
          }
        }
        JOINT RightCollar
        {
          OFFSET -2.2603 21.606 7.4023
          CHANNELS 3 Zrotation Xrotation Yrotation
          JOINT RightShoulder
          {
            OFFSET -13.5187 -1.1334 -5.0155
            CHANNELS 3 Zrotation Xrotation Yrotation
            JOINT RightElbow
            {
              OFFSET 0.0994 -28.0499 -0.2431
              CHANNELS 3 Zrotation Xrotation Yrotation
              JOINT RightWrist
              {
                OFFSET -0.0679 -23.3996 -0.1402
                CHANNELS 3 Zrotation Xrotation Yrotation
                JOINT RightFinger1
                {
                  OFFSET -0.7932 -9.0691 2.5189
                  CHANNELS 3 Zrotation Xrotation Yrotation
                  JOINT RightFinger11
                  {
                    OFFSET 0.8272 -3.3923 0.5977
                    CHANNELS 3 Zrotation Xrotation Yrotation
                    JOINT RightFinger12
                    {
                      OFFSET 0.565 -2.3158 0.4082
                      CHANNELS 3 Zrotation Xrotation Yrotation
                      End Site
                      {
                        OFFSET 0.4919 -1.6479 0.2673
                      }
                    }
                  }
                }
                JOINT RightFinger2
                {
                  OFFSET -0.916 -9.2044 0.2193
                  CHANNELS 3 Zrotation Xrotation Yrotation
                  JOINT RightFinger21
                  {
                    OFFSET -0.0117 -4.1944 -0.0248
                    CHANNELS 3 Zrotation Xrotation Yrotation
                    JOINT RightFinger22
                    {
                      OFFSET -0.0071 -2.3249 -0.0142
                      CHANNELS 3 Zrotation Xrotation Yrotation
                      End Site
                      {
                        OFFSET 0.1475 -2.0882 0.0028
                      }
                    }
                  }
                }
                JOINT RightFinger3
                {
                  OFFSET -0.6113 -8.7231 -2.0637
                  CHANNELS 3 Zrotation Xrotation Yrotation
                  JOINT RightFinger31
                  {
                    OFFSET 0.1927 -3.8059 -0.2383
                    CHANNELS 3 Zrotation Xrotation Yrotation
                    JOINT RightFinger32
                    {
                      OFFSET 0.1091 -2.1688 -0.1362
                      CHANNELS 3 Zrotation Xrotation Yrotation
                      End Site
                      {
                        OFFSET 0.2358 -1.9176 -0.0906
                      }
                    }
                  }
                }
                JOINT RightFinger4
                {
                  OFFSET 0.6151 -8.0947 -3.564
                  CHANNELS 3 Zrotation Xrotation Yrotation
                  JOINT RightFinger41
                  {
                    OFFSET 0.4882 -2.341 -0.6462
                    CHANNELS 3 Zrotation Xrotation Yrotation
                    JOINT RightFinger42
                    {
                      OFFSET 0.3574 -1.7166 -0.4742
                      CHANNELS 3 Zrotation Xrotation Yrotation
                      End Site
                      {
                        OFFSET 0.4187 -1.5237 -0.3496
                      }
                    }
                  }
                }
                JOINT RightFinger0
                {
                  OFFSET 1.4199 -1.8761 1.4221
                  CHANNELS 3 Zrotation Xrotation Yrotation
                  JOINT RightFinger01
                  {
                    OFFSET 1.1472 -3.4929 2.6336
                    CHANNELS 3 Zrotation Xrotation Yrotation
                    JOINT RightFinger02
                    {
                      OFFSET 0.8229 -2.3 1.6571
                      CHANNELS 3 Zrotation Xrotation Yrotation
                      End Site
                      {
                        OFFSET 0.5822 -1.6914 1.1582
                      }
                    }
                  }
                }
              }
            }
          }
        }
      }
    }
  }
  JOINT RightHip
  {
    OFFSET -9.412 3.9771 -0.7758
    CHANNELS 3 Zrotation Xrotation Yrotation
    JOINT RightKnee
    {
      OFFSET -0.7531 -40.938 0
      CHANNELS 3 Zrotation Xrotation Yrotation
      JOINT RightAnkle
      {
        OFFSET 0 -40.1986 0
        CHANNELS 3 Zrotation Xrotation Yrotation
        JOINT RightToe
        {
          OFFSET 0 -4.4182 9.239
          CHANNELS 3 Zrotation Xrotation Yrotation
          End Site
          {
            OFFSET 0 0 6.1981
          }
        }
      }
    }
  }
  JOINT LeftHip
  {
    OFFSET 9.4119 3.9773 -0.7758
    CHANNELS 3 Zrotation Xrotation Yrotation
    JOINT LeftKnee
    {
      OFFSET 0.7532 -40.9383 0
      CHANNELS 3 Zrotation Xrotation Yrotation
      JOINT LeftAnkle
      {
        OFFSET 0 -40.1986 0
        CHANNELS 3 Zrotation Xrotation Yrotation
        JOINT LeftToe
        {
          OFFSET 0 -4.4182 9.239
          CHANNELS 3 Zrotation Xrotation Yrotation
          End Site
          {
            OFFSET 0 0 6.1981
          }
        }
      }
    }
  }
}
MOTION
Frames:	6
Frame Time:	0.0333333
-9.1154e-005 5.08274 9.94577 -180 -88.6463 -180 -0.0290795 -1.15721 -0.149693 -0.0612022 -2.31432 -0.300066 -0.0612023 -2.31433 -0.300067 3.98708e-006 39.9976 -8.05139e-006 9.37966 -23.4358 9.63328 -19.189 13.2047 -11.1823 37.4954 -23.3379 29.8551 -10.4044 2.0721 -35.0001 -49.0195 12.0951 61.8589 -3.18055e-015 0 -4.77083e-015 3.05802e-006 6.87664e-007 -2.00997e-007 9.54166e-015 3.18055e-015 -1.59028e-015 -3.18055e-015 0 -4.77083e-015 -0.0128366 0.00233111 9.15014e-005 9.54166e-015 3.18055e-015 -1.59028e-015 -3.18055e-015 0 -4.77083e-015 -0.0160612 0.00300539 0.000863033 -3.18055e-015 3.18055e-015 -0 -3.18055e-015 0 -4.77083e-015 -0.0125884 0.00310941 0.00283378 9.54166e-015 9.54166e-015 1.59028e-015 -3.18055e-015 0 -4.77083e-015 3.05802e-006 6.87664e-007 -2.00997e-007 9.54166e-015 3.18055e-015 -1.59028e-015 19.682 13.2068 6.67477 -36.1654 -24.7007 -25.7281 9.17923 1.83564 35.0892 50.9144 13.2902 -60.486 -1.76556e-031 3.18055e-015 3.18055e-015 3.88142e-006 2.39878e-006 -3.09259e-006 1.27222e-014 0 -3.18055e-015 -1.76556e-031 3.18055e-015 3.18055e-015 0.0129583 0.00231046 -8.11924e-005 5.29669e-031 -9.54166e-015 3.18055e-015 -1.76556e-031 3.18055e-015 3.18055e-015 0.0163292 0.00303293 -0.000869912 -3.18055e-015 0 1.59028e-015 -1.76556e-031 3.18055e-015 3.18055e-015 0.0145916 0.00367745 -0.00327242 -2.92233e-006 1.10801e-006 5.30786e-006 -1.76556e-031 3.18055e-015 3.18055e-015 3.88142e-006 2.39878e-006 -3.09259e-006 1.27222e-014 0 -3.18055e-015 -21.9769 -23.6351 -49.0394 -69.1894 53.0737 56.6907 5.52972 12.1554 -12.3068 -1.13433e-006 5.41379e-006 -4.67999e-006 21.9556 -23.6413 49.0193 69.1439 53.0921 -56.64 -5.53423 12.1679 12.2919 5.29669e-031 -9.54166e-015 3.18055e-015 
-8.90938e-005 5.03955 9.92337 180 -88.2959 180 -0.0296196 -1.04685 -0.149569 -0.0619884 -2.0936 -0.299755 -0.0619887 -2.09362 -0.299757 1.25781e-005 39.9975 -2.52945e-005 9.31459 -23.2804 9.56722 -19.4107 12.8898 -11.4647 37.7294 -23.2223 29.9571 -10.1782 2.03193 -34.9905 -49.2225 12.0813 61.9503 3.39675e-006 -2.18376e-006 -1.72805e-006 5.86478e-006 -1.4938e-006 -2.32894e-006 5.94562e-006 2.40331e-006 2.82165e-006 3.39675e-006 -2.18376e-006 -1.72805e-006 -0.012821 0.00231212 8.62142e-005 9.18016e-006 1.15273e-005 -2.44334e-006 3.39675e-006 -2.18376e-006 -1.72805e-006 -0.0160694 0.0029847 0.000855128 7.98506e-006 6.17421e-006 4.32409e-007 3.39675e-006 -2.18376e-006 -1.72805e-006 -0.0125809 0.00311845 0.00283336 -5.36386e-006 -6.35279e-006 4.34117e-006 3.39675e-006 -2.18376e-006 -1.72805e-006 5.86478e-006 -1.4938e-006 -2.32894e-006 5.94562e-006 2.40331e-006 2.82165e-006 19.9588 12.8836 6.99103 -36.457 -24.5771 -25.868 8.9291 1.79142 35.075 51.1427 13.3073 -60.5561 6.36111e-015 -9.54166e-015 3.18055e-015 6.36111e-015 -6.36111e-015 4.77083e-015 2.70292e-006 -1.80152e-007 1.42049e-006 6.36111e-015 -9.54166e-015 3.18055e-015 0.0129726 0.00230666 -8.57831e-005 5.22147e-006 5.45759e-006 -8.18667e-007 6.36111e-015 -9.54166e-015 3.18055e-015 0.0163598 0.00303323 -0.000877626 9.59231e-007 9.95256e-007 2.21533e-006 6.36111e-015 -9.54166e-015 3.18055e-015 0.014594 0.00367212 -0.00327134 1.74323e-006 1.27861e-006 -7.94596e-007 6.36111e-015 -9.54166e-015 3.18055e-015 6.36111e-015 -6.36111e-015 4.77083e-015 2.70292e-006 -1.80152e-007 1.42049e-006 -21.9787 -23.3613 -49.0011 -69.1978 53.0752 56.6975 5.43822 12.1918 -12.2518 1.27222e-014 7.14331e-008 6.36111e-015 21.9576 -23.3673 48.9808 69.1519 53.0935 -56.6466 -5.44296 12.2043 12.2369 -6.36111e-015 -1.45893e-008 -3.18055e-015 
-8.62741e-005 4.99622 9.90071 -180 -87.9455 -180 -0.0301605 -0.936553 -0.149447 -0.0627774 -1.873 -0.299449 -0.0627769 -1.87298 -0.299447 4.37692e-006 39.9976 -8.79163e-006 9.24978 -23.1249 9.50141 -19.6338 12.5761 -11.7479 37.9621 -23.1064 30.0581 -9.9512 1.99134 -34.981 -49.4255 12.0672 62.0417 -6.8843e-006 -2.27643e-006 6.91265e-006 -1.6968e-006 2.18678e-006 8.64775e-007 -4.59286e-006 -4.50034e-006 -2.1548e-006 -6.8843e-006 -2.27643e-006 6.91265e-006 -0.0128143 0.00232028 8.69267e-005 6.36111e-015 -6.36111e-015 -1.59028e-015 -6.8843e-006 -2.27643e-006 6.91265e-006 -0.0160188 0.00298107 0.000855291 3.53113e-031 -3.18055e-015 6.36111e-015 -6.8843e-006 -2.27643e-006 6.91265e-006 -0.0125917 0.00313547 0.00283308 -3.18055e-015 6.36111e-015 -0 -6.8843e-006 -2.27643e-006 6.91265e-006 -1.6968e-006 2.18678e-006 8.64775e-007 -4.59286e-006 -4.50034e-006 -2.1548e-006 20.237 12.5623 7.30841 -36.7505 -24.4531 -26.0082 8.68103 1.74834 35.0607 51.371 13.3241 -60.6264 -1.13966e-005 1.77568e-005 -2.14064e-006 1.35306e-005 -1.72374e-005 -1.60308e-007 -3.47204e-006 1.48584e-005 -1.54186e-006 -1.13966e-005 1.77568e-005 -2.14064e-006 0.0129465 0.00231024 -9.05601e-005 6.37597e-006 4.61681e-006 1.42537e-006 -1.13966e-005 1.77568e-005 -2.14064e-006 0.0163387 0.00301661 -0.000876237 9.67203e-006 4.93555e-006 -1.76287e-006 -1.13966e-005 1.77568e-005 -2.14064e-006 0.0145708 0.00365426 -0.0032611 8.13874e-006 3.23855e-006 -6.13148e-006 -1.13966e-005 1.77568e-005 -2.14064e-006 1.35306e-005 -1.72374e-005 -1.60308e-007 -3.47204e-006 1.48584e-005 -1.54186e-006 -21.9808 -23.0874 -48.9627 -69.2059 53.0767 56.7041 5.34665 12.2282 -12.1966 -3.18055e-015 3.18055e-015 -0 21.9597 -23.0934 48.9424 69.1601 53.095 -56.6532 -5.35164 12.2406 12.1818 -3.68981e-006 -1.22989e-005 1.38382e-005 
-8.63022e-005 4.95274 9.87778 -180 -87.5951 -180 -0.030699 -0.82619 -0.149312 -0.0635606 -1.65226 -0.299111 -0.0635606 -1.65227 -0.299111 3.15684e-005 39.9973 -6.40426e-005 9.18519 -22.9693 9.43583 -19.8582 12.2633 -12.0322 38.198 -22.9899 30.1599 -9.72722 1.95215 -34.9711 -49.6284 12.0528 62.133 -8.24128e-006 6.58456e-007 6.25971e-006 -2.0419e-006 2.02516e-006 -4.37143e-006 -3.92422e-006 4.93404e-006 -5.20058e-006 -8.24128e-006 6.58456e-007 6.25971e-006 -0.012816 0.0023042 8.74238e-005 3.23204e-006 7.70007e-006 -5.27319e-006 -8.24128e-006 6.58456e-007 6.25971e-006 -0.0160402 0.00297799 0.000853406 -5.94797e-006 1.27648e-006 3.95285e-006 -8.24128e-006 6.58456e-007 6.25971e-006 -0.0125697 0.0031103 0.00282344 -9.18957e-006 -1.21897e-005 2.46385e-006 -8.24128e-006 6.58456e-007 6.25971e-006 -2.0419e-006 2.02516e-006 -4.37143e-006 -3.92422e-006 4.93404e-006 -5.20058e-006 20.5166 12.2421 7.62702 -37.0436 -24.3285 -26.1476 8.43312 1.70532 35.0462 51.5994 13.3408 -60.6967 -2.31267e-006 -1.07647e-006 -2.92344e-006 3.18055e-015 0 3.18055e-015 -3.47815e-006 1.62669e-005 -1.54191e-006 -2.31267e-006 -1.07647e-006 -2.92344e-006 0.012989 0.00232073 -9.15429e-005 3.18055e-015 3.18055e-015 3.18055e-015 -2.31267e-006 -1.07647e-006 -2.92344e-006 0.0163435 0.00302762 -0.000878691 -3.18055e-015 -3.18055e-015 4.77083e-015 -2.31267e-006 -1.07647e-006 -2.92344e-006 0.0145727 0.00367082 -0.00325685 -1.17088e-006 1.27605e-006 4.51635e-006 -2.31267e-006 -1.07647e-006 -2.92344e-006 3.18055e-015 0 3.18055e-015 -3.47815e-006 1.62669e-005 -1.54191e-006 -21.983 -22.8133 -48.9245 -69.2139 53.0781 56.7107 5.25505 12.2643 -12.1415 9.54166e-015 -3.18055e-015 6.36111e-015 21.962 -22.8196 48.904 69.1685 53.0965 -56.66 -5.26029 12.2767 12.1266 -1.022e-008 -6.89244e-006 9.11467e-006 
-8.25271e-005 4.90912 9.85458 180 -87.2448 180 -0.0312409 -0.715954 -0.149193 -0.0643544 -1.43183 -0.298813 -0.0643539 -1.43183 -0.29881 -9.71045e-006 39.9977 2.00401e-005 9.12085 -22.8135 9.37049 -20.0838 11.9521 -12.317 38.4326 -22.8731 30.2608 -9.50248 1.91262 -34.9612 -49.8313 12.0381 62.2242 2.38051e-006 -5.31973e-007 2.84435e-006 6.36111e-015 0 -1.59028e-015 -5.27521e-006 -3.46852e-006 9.07498e-007 2.38051e-006 -5.31973e-007 2.84435e-006 -0.012832 0.00231054 9.78492e-005 -3.05095e-006 -3.41187e-007 2.06754e-007 2.38051e-006 -5.31973e-007 2.84435e-006 -0.016032 0.00299437 0.000862249 -7.65664e-006 -4.07833e-006 -1.9372e-006 2.38051e-006 -5.31973e-007 2.84435e-006 -0.0125941 0.00312298 0.00282688 -1.41356e-005 -1.73367e-005 1.85623e-006 2.38051e-006 -5.31973e-007 2.84435e-006 6.36111e-015 0 -1.59028e-015 -5.27521e-006 -3.46852e-006 9.07498e-007 20.7976 11.9241 7.94665 -37.3335 -24.203 -26.2851 8.18315 1.66104 35.0319 51.8278 13.3571 -60.7671 1.04488e-005 -1.14833e-005 -1.64807e-006 2.70453e-006 -6.40467e-006 2.98485e-006 -0 0 1.59028e-015 1.04488e-005 -1.14833e-005 -1.64807e-006 0.0129547 0.00231477 -8.73755e-005 9.54166e-015 -3.18055e-015 -0 1.04488e-005 -1.14833e-005 -1.64807e-006 0.0163286 0.0030364 -0.000869066 -3.18055e-015 0 -1.59028e-015 1.04488e-005 -1.14833e-005 -1.64807e-006 0.01458 0.00366597 -0.00325722 0 0 -1.59028e-015 1.04488e-005 -1.14833e-005 -1.64807e-006 2.70453e-006 -6.40467e-006 2.98485e-006 -0 0 1.59028e-015 -21.9854 -22.5396 -48.8863 -69.2224 53.0797 56.7176 5.16341 12.3004 -12.0863 1.83493e-006 -4.22624e-006 2.19498e-006 21.9645 -22.5457 48.8657 69.1767 53.098 -56.6668 -5.1689 12.3127 12.0715 -3.67139e-006 8.38706e-007 -4.39207e-006 
-8.44675e-005 4.86535 9.83112 -180 -86.8944 -180 -0.0317832 -0.605741 -0.149072 -0.0651479 -1.2114 -0.298506 -0.0651479 -1.21141 -0.298505 -5.29175e-005 39.998 0.000109258 9.05675 -22.6577 9.30539 -20.3108 11.6421 -12.6027 38.6659 -22.7559 30.3607 -9.27704 1.87263 -34.9514 -50.0342 12.023 62.3154 6.36111e-015 -6.36111e-015 -3.18055e-015 2.04821e-006 -2.09558e-006 4.36849e-006 9.19791e-006 1.14936e-005 -2.48515e-006 6.36111e-015 -6.36111e-015 -3.18055e-015 -0.0128243 0.00232339 8.74363e-005 3.40567e-006 4.98944e-006 5.02727e-006 6.36111e-015 -6.36111e-015 -3.18055e-015 -0.0160533 0.00300969 0.000848738 -3.18055e-015 0 1.59028e-015 6.36111e-015 -6.36111e-015 -3.18055e-015 -0.0125912 0.00312739 0.00283699 3.45851e-006 1.58852e-005 3.16642e-006 6.36111e-015 -6.36111e-015 -3.18055e-015 2.04821e-006 -2.09558e-006 4.36849e-006 9.19791e-006 1.14936e-005 -2.48515e-006 21.0801 11.6077 8.26748 -37.6257 -24.0772 -26.423 7.9356 1.61819 35.0173 52.0562 13.3731 -60.8376 -6.18291e-006 -3.59149e-006 1.81187e-007 1.27222e-014 0 -0 3.18055e-015 -3.18055e-015 -0 -6.18291e-006 -3.59149e-006 1.81187e-007 0.0129477 0.0023155 -9.3086e-005 -6.36111e-015 3.18055e-015 3.18055e-015 -6.18291e-006 -3.59149e-006 1.81187e-007 0.0163601 0.00303276 -0.000880709 -3.18055e-015 9.54166e-015 -4.77083e-015 -6.18291e-006 -3.59149e-006 1.81187e-007 0.014606 0.00367831 -0.00326145 -4.06218e-006 4.94251e-006 -3.69162e-006 -6.18291e-006 -3.59149e-006 1.81187e-007 1.27222e-014 0 -0 3.18055e-015 -3.18055e-015 -0 -21.9881 -22.2658 -48.8481 -69.2307 53.0812 56.7245 5.07172 12.3364 -12.0311 4.8875e-006 -2.33585e-006 8.45967e-007 21.9673 -22.2718 48.8274 69.1849 53.0995 -56.6735 -5.07746 12.3487 12.0162 -1.85877e-006 -6.5763e-006 1.60311e-005 
